<svg width="480" height="372" viewBox="0 0 480 372" fill="none" xmlns="http://www.w3.org/2000/svg">
<g clip-path="url(#clip0_1_25)">
<path d="M226.571 151.978C226.571 151.978 232.795 198.8 223.219 204.058C213.644 209.316 280.192 209.791 280.192 209.791C280.192 209.791 265.351 169.179 272.053 156.755L226.571 151.978Z" fill="#FAD1D8"/>
<path d="M253.382 177.311C271.626 177.311 286.416 162.551 286.416 144.344C286.416 126.136 271.626 111.377 253.382 111.377C235.137 111.377 220.348 126.136 220.348 144.344C220.348 162.551 235.137 177.311 253.382 177.311Z" fill="#FAD1D8"/>
<path d="M328.787 210.028L323.253 235.18L311.551 288.39L311.201 291.304L307.163 325.04L304.475 347.451L302.675 362.506C291.722 368.123 283.785 372.001 283.785 372.001C283.785 372.001 283.102 368.588 282.001 364.216C274.315 366.516 260.092 370.331 248.038 371.093C252.426 375.976 184.642 251.787 182.041 235.181C179.948 221.817 178.375 210.524 178.043 208.121C177.998 207.808 177.976 207.646 177.976 207.646L228.483 185.374C232.072 193.681 248.833 196.178 248.833 196.178C262.718 195.223 273.603 187.914 273.603 187.914L328.787 210.028Z" fill="#3AC864"/>
<path d="M364.694 325.653C361.329 329.294 352.993 334.777 342.884 340.713C339.124 342.918 335.121 345.191 331.038 347.451C321.294 352.844 311.092 358.188 302.673 362.505C291.721 368.123 283.783 372.001 283.783 372.001C283.783 372.001 283.1 368.587 282 364.216C280.526 358.365 278.307 350.801 275.994 347.453C275.913 347.337 275.833 347.229 275.754 347.122C275.08 346.238 274.402 345.723 273.732 345.723L307.161 325.04L321.608 316.1L311.199 291.304L298.145 260.2L306.024 235.179L313.945 210.028H328.788C328.788 210.028 333.702 220.733 339.987 235.662C340.926 237.895 341.897 240.222 342.885 242.625C355.812 274.007 371.932 317.828 364.694 325.653Z" fill="#3AC864"/>
<path d="M215.32 347.155C214.101 347.15 212.884 347.249 211.681 347.451C201.354 349.222 198.308 358.551 197.441 364.801C197.163 366.709 197.058 368.639 197.126 370.566L188.005 363.563L184.681 361.012C176.68 358.228 169.551 353.283 163.37 347.45C158.007 342.301 153.197 336.608 149.017 330.463C144.853 324.407 141.141 318.054 137.912 311.455C137.011 309.613 136.526 307.597 136.493 305.548C136.46 303.499 136.878 301.467 137.719 299.598L149.017 274.469L165.53 237.743C165.65 236.869 165.784 236.014 165.93 235.179C169.205 216.439 177.978 208.119 177.978 208.119H184.677L189.16 235.18L194.731 268.799L190.827 281.504L181.806 310.848L190.426 320.19L215.32 347.155Z" fill="#3AC864"/>
<path d="M353.53 362.426V365.147C353.531 365.894 353.393 366.635 353.121 367.331C353 367.642 352.855 367.942 352.685 368.229C352.15 369.126 351.39 369.869 350.481 370.384C349.571 370.9 348.543 371.17 347.497 371.17H146.895C145.849 371.171 144.82 370.9 143.911 370.384C143.001 369.869 142.241 369.126 141.706 368.229C141.537 367.942 141.391 367.642 141.27 367.331C140.999 366.635 140.86 365.894 140.862 365.147V362.426C140.861 361.635 141.017 360.852 141.32 360.122C141.624 359.391 142.068 358.727 142.628 358.168C143.188 357.609 143.854 357.166 144.586 356.863C145.318 356.561 146.102 356.405 146.895 356.405H158.459V355.136C158.459 355.07 158.486 355.006 158.533 354.959C158.58 354.912 158.644 354.886 158.711 354.886H164.744C164.777 354.885 164.809 354.892 164.84 354.904C164.871 354.917 164.898 354.936 164.922 354.959C164.945 354.982 164.964 355.01 164.976 355.04C164.989 355.071 164.995 355.104 164.995 355.136V356.405H168.764V355.136C168.764 355.07 168.791 355.006 168.838 354.959C168.885 354.912 168.949 354.886 169.016 354.886H175.048C175.081 354.885 175.114 354.892 175.144 354.904C175.175 354.917 175.203 354.936 175.226 354.959C175.249 354.982 175.268 355.01 175.28 355.04C175.293 355.071 175.3 355.104 175.299 355.136V356.405H179.073V355.136C179.073 355.07 179.099 355.006 179.146 354.959C179.193 354.912 179.257 354.886 179.324 354.886H185.357C185.39 354.885 185.423 354.892 185.453 354.904C185.484 354.917 185.512 354.936 185.535 354.959C185.558 354.982 185.577 355.01 185.59 355.04C185.602 355.071 185.609 355.104 185.609 355.136V356.405H189.378V355.136C189.378 355.07 189.404 355.006 189.451 354.959C189.498 354.912 189.562 354.886 189.629 354.886H195.662C195.695 354.885 195.728 354.892 195.758 354.904C195.789 354.917 195.817 354.936 195.84 354.959C195.863 354.982 195.882 355.01 195.895 355.04C195.907 355.071 195.914 355.104 195.913 355.136V356.405H199.683V355.136C199.682 355.104 199.689 355.071 199.701 355.04C199.714 355.01 199.733 354.982 199.756 354.959C199.779 354.936 199.807 354.917 199.838 354.904C199.868 354.892 199.901 354.885 199.934 354.886H205.967C206 354.885 206.033 354.892 206.063 354.904C206.094 354.917 206.122 354.936 206.145 354.959C206.168 354.982 206.187 355.01 206.199 355.04C206.212 355.071 206.218 355.104 206.218 355.136V356.405H209.992V355.136C209.992 355.104 209.999 355.071 210.011 355.04C210.024 355.01 210.042 354.982 210.066 354.959C210.089 354.936 210.117 354.917 210.147 354.904C210.178 354.892 210.211 354.885 210.244 354.886H216.279C216.312 354.885 216.344 354.892 216.375 354.904C216.405 354.917 216.433 354.936 216.456 354.959C216.48 354.982 216.498 355.01 216.511 355.04C216.524 355.071 216.53 355.104 216.53 355.136V356.405H220.299V355.136C220.299 355.104 220.305 355.071 220.318 355.04C220.331 355.01 220.349 354.982 220.372 354.959C220.396 354.936 220.424 354.917 220.454 354.904C220.485 354.892 220.517 354.885 220.55 354.886H267.809C267.842 354.885 267.875 354.892 267.905 354.904C267.936 354.917 267.964 354.936 267.987 354.959C268.01 354.982 268.029 355.01 268.042 355.04C268.054 355.071 268.061 355.104 268.061 355.136V356.405H271.834V355.136C271.834 355.07 271.861 355.006 271.908 354.959C271.955 354.912 272.019 354.886 272.086 354.886H278.119C278.185 354.886 278.249 354.913 278.296 354.96C278.343 355.007 278.37 355.07 278.37 355.136V356.405H282.139V355.136C282.139 355.104 282.146 355.071 282.158 355.04C282.171 355.01 282.189 354.982 282.213 354.959C282.236 354.936 282.264 354.917 282.294 354.904C282.325 354.892 282.358 354.885 282.391 354.886H288.424C288.457 354.885 288.49 354.892 288.521 354.904C288.551 354.917 288.579 354.936 288.602 354.959C288.626 354.982 288.644 355.01 288.657 355.04C288.669 355.071 288.676 355.104 288.676 355.136V356.405H292.445V355.136C292.445 355.104 292.451 355.071 292.464 355.04C292.476 355.01 292.495 354.982 292.518 354.959C292.542 354.936 292.569 354.917 292.6 354.904C292.63 354.892 292.663 354.885 292.696 354.886H298.729C298.762 354.885 298.795 354.892 298.826 354.904C298.856 354.917 298.884 354.936 298.907 354.959C298.931 354.982 298.949 355.01 298.962 355.04C298.974 355.071 298.981 355.104 298.981 355.136V356.405H302.755V355.136C302.754 355.104 302.761 355.071 302.773 355.04C302.786 355.01 302.805 354.982 302.828 354.959C302.851 354.936 302.879 354.917 302.91 354.904C302.94 354.892 302.973 354.885 303.006 354.886H309.043C309.109 354.886 309.172 354.913 309.218 354.96C309.264 355.007 309.29 355.071 309.29 355.136V356.405H313.063V355.136C313.063 355.104 313.069 355.071 313.082 355.04C313.095 355.01 313.113 354.982 313.136 354.959C313.16 354.936 313.188 354.917 313.218 354.904C313.249 354.892 313.281 354.885 313.314 354.886H319.348C319.414 354.886 319.478 354.912 319.525 354.959C319.572 355.006 319.599 355.07 319.599 355.136V356.405H323.368V355.136C323.368 355.104 323.374 355.071 323.387 355.04C323.4 355.01 323.418 354.982 323.441 354.959C323.465 354.936 323.493 354.917 323.523 354.904C323.554 354.892 323.586 354.885 323.619 354.886H329.652C329.686 354.885 329.718 354.892 329.749 354.904C329.779 354.917 329.807 354.936 329.83 354.959C329.854 354.982 329.872 355.01 329.885 355.04C329.897 355.071 329.904 355.104 329.904 355.136V356.405H347.5C348.293 356.405 349.077 356.561 349.809 356.863C350.541 357.166 351.206 357.609 351.767 358.168C352.327 358.727 352.771 359.391 353.074 360.122C353.378 360.852 353.533 361.635 353.533 362.426H353.53Z" fill="#404040"/>
<path d="M411.863 371.103H82.5779V371.999H411.863V371.103Z" fill="#7B878E"/>
<path d="M337.378 247.824H262.609V246.285H228.706V247.824H153.623C152.282 247.824 150.996 248.355 150.048 249.302C149.1 250.248 148.567 251.531 148.566 252.869V355.047C148.566 356.386 149.099 357.67 150.047 358.617C150.996 359.563 152.282 360.095 153.624 360.095H337.378C338.719 360.095 340.006 359.563 340.954 358.617C341.903 357.67 342.436 356.386 342.436 355.047V252.869C342.436 251.53 341.903 250.246 340.954 249.3C340.006 248.353 338.719 247.821 337.378 247.821V247.824Z" fill="#404040"/>
<path d="M245.648 294.704C251.851 294.704 256.879 289.686 256.879 283.496C256.879 277.306 251.851 272.288 245.648 272.288C239.445 272.288 234.417 277.306 234.417 283.496C234.417 289.686 239.445 294.704 245.648 294.704Z" stroke="#EBF9EF" stroke-width="2" stroke-miterlimit="10"/>
<path d="M242.054 298.739C248.257 298.739 253.285 293.721 253.285 287.531C253.285 281.341 248.257 276.323 242.054 276.323C235.852 276.323 230.823 281.341 230.823 287.531C230.823 293.721 235.852 298.739 242.054 298.739Z" fill="#E9EBEC"/>
<path d="M223.028 131.761L220.696 155.51C220.696 155.51 196.213 108.107 226.659 99.3409C226.659 99.3409 223.694 95.3346 227.997 94.0016C232.299 92.6686 273.089 86.2765 276.341 106.206C276.341 106.206 297.65 119.386 291.2 133.487L283.602 150.068L276.722 150.449C276.722 150.449 276.529 118.89 266.022 119.939C255.516 120.987 223.028 131.761 223.028 131.761Z" fill="#404040"/>
<path d="M466.025 121.61L347.233 102.859C346.807 102.792 346.426 102.558 346.173 102.21C345.919 101.862 345.815 101.428 345.882 101.002L357.558 27.5341L479.562 46.7922L467.887 120.26C467.819 120.685 467.584 121.066 467.236 121.319C466.887 121.572 466.452 121.677 466.026 121.61L466.025 121.61Z" fill="#B2B9BD"/>
<path d="M463.273 116.47L351.444 98.8183C351.014 98.7499 350.629 98.5139 350.372 98.162C350.116 97.8101 350.011 97.3711 350.078 96.9413L359.694 36.4353C359.763 36.0055 359.999 35.6205 360.352 35.3645C360.705 35.1086 361.145 35.0028 361.575 35.0703L473.404 52.7224C473.834 52.7908 474.22 53.0269 474.476 53.3789C474.732 53.731 474.838 54.1701 474.77 54.6L465.154 115.106C465.085 115.536 464.849 115.921 464.496 116.177C464.143 116.433 463.703 116.538 463.273 116.47Z" fill="#FCFCFC"/>
<path d="M479.149 49.0813L357.125 29.8017L357.721 26.0449C357.789 25.6193 358.023 25.238 358.372 24.9847C358.721 24.7313 359.156 24.6265 359.582 24.6933L478.393 43.4653C478.819 43.5331 479.2 43.7669 479.454 44.1154C479.707 44.4639 479.812 44.8987 479.745 45.3244L479.149 49.0813Z" fill="#3AC864"/>
<path d="M361.329 28.7553C361.859 28.839 362.357 28.4779 362.441 27.9489C362.525 27.4199 362.164 26.9233 361.634 26.8396C361.104 26.756 360.606 27.1171 360.522 27.6461C360.438 28.1751 360.8 28.6717 361.329 28.7553Z" fill="#FCFCFC"/>
<path d="M364.971 29.3309C365.501 29.4145 365.998 29.0535 366.082 28.5245C366.166 27.9955 365.805 27.4988 365.275 27.4152C364.745 27.3316 364.248 27.6926 364.164 28.2216C364.08 28.7506 364.441 29.2473 364.971 29.3309Z" fill="#FCFCFC"/>
<path d="M368.612 29.9064C369.141 29.99 369.639 29.629 369.723 29.1C369.807 28.571 369.446 28.0743 368.916 27.9907C368.386 27.9071 367.889 28.2681 367.805 28.7971C367.72 29.3261 368.082 29.8228 368.612 29.9064Z" fill="#FCFCFC"/>
<path d="M381.236 49.2952L369.709 47.4757L368.9 52.5703L380.426 54.3898L381.236 49.2952Z" fill="#B2B9BD"/>
<path d="M402.615 63.5007L391.089 61.6812L390.279 66.7758L401.805 68.5953L402.615 63.5007Z" fill="#B2B9BD"/>
<path d="M377.045 75.698L365.519 73.8785L364.71 78.9731L376.236 80.7926L377.045 75.698Z" fill="#3AC864"/>
<path d="M398.424 89.9035L386.898 88.084L386.089 93.1786L397.615 94.9981L398.424 89.9035Z" fill="#3AC864"/>
<path d="M455.035 104.264L443.508 102.445L442.699 107.539L454.225 109.359L455.035 104.264Z" fill="#3AC864"/>
<path d="M446.859 81.3198L435.333 79.5003L434.524 84.5949L446.05 86.4144L446.859 81.3198Z" fill="#B2B9BD"/>
<path d="M423.994 77.7041L400.94 74.0641L400.13 79.1602L423.184 82.8002L423.994 77.7041Z" fill="#3AC864"/>
<path d="M428.214 51.1132L405.16 47.4732L404.351 52.5693L427.404 56.2093L428.214 51.1132Z" fill="#3AC864"/>
<path d="M359.935 34.7156L349.771 98.6754L465.028 116.869L475.193 52.909L359.935 34.7156ZM473.972 58.1475L462.862 56.3938L463.644 51.473L474.754 53.2266L473.972 58.1475ZM399.528 84.4171L400.31 79.4957L422.908 83.0627L422.126 87.9841L399.528 84.4171ZM422.066 88.3616L421.284 93.283L398.686 89.716L399.468 84.7946L422.066 88.3616ZM425.434 67.1677L424.652 72.0891L402.054 68.5221L402.836 63.6001L425.434 67.1677ZM402.896 63.2232L403.678 58.3012L426.276 61.8682L425.494 66.7896L402.896 63.2232ZM401.212 73.8204L401.994 68.8984L424.592 72.4655L423.81 77.3869L401.212 73.8204ZM423.75 77.765L422.968 82.6864L400.37 79.1193L401.152 74.1973L423.75 77.765ZM401.676 68.4618L390.569 66.7085L391.351 61.7871L402.458 63.5404L401.676 68.4618ZM401.616 68.8393L400.834 73.7607L389.727 72.0074L390.509 67.0854L401.616 68.8393ZM400.774 74.1377L399.992 79.0591L388.885 77.3058L389.667 72.3844L400.774 74.1377ZM399.932 79.436L399.15 84.3574L388.043 82.6041L388.825 77.6827L399.932 79.436ZM423.286 83.1224L434.395 84.8759L433.612 89.7973L422.504 88.0438L423.286 83.1224ZM423.346 82.7449L424.128 77.8241L435.237 79.5775L434.454 84.4989L423.346 82.7449ZM424.188 77.4465L424.97 72.5251L436.079 74.2786L435.297 79.2L424.188 77.4465ZM425.03 72.1482L425.812 67.2268L436.921 68.9803L436.139 73.9017L425.03 72.1482ZM425.872 66.8499L426.654 61.9279L437.763 63.6814L436.981 68.6028L425.872 66.8499ZM426.714 61.5515L427.496 56.6296L438.605 58.383L437.823 63.3044L426.714 61.5515ZM426.336 61.4919L403.738 57.9248L404.52 53.0028L427.118 56.5699L426.336 61.4919ZM403.36 57.8652L392.253 56.1119L393.035 51.1899L404.142 52.9432L403.36 57.8652ZM403.3 58.2427L402.518 63.1641L391.411 61.4108L392.193 56.4882L403.3 58.2427ZM391.03 61.3501L379.921 59.5965L380.703 54.6745L391.813 56.4281L391.03 61.3501ZM390.97 61.7277L390.188 66.6491L379.078 64.8954L379.861 59.9734L390.97 61.7277ZM390.128 67.026L389.346 71.9474L378.236 70.1937L379.019 65.2717L390.128 67.026ZM389.286 72.3243L388.504 77.2457L377.394 75.492L378.177 70.5706L389.286 72.3243ZM388.444 77.6226L387.662 82.544L376.552 80.7904L377.335 75.869L388.444 77.6226ZM387.602 82.921L386.82 87.843L375.71 86.0893L376.492 81.1679L387.602 82.921ZM387.98 82.9806L399.09 84.7343L398.308 89.6563L387.201 87.903L387.98 82.9806ZM398.248 90.0326L397.466 94.954L386.359 93.2007L387.141 88.2799L398.248 90.0326ZM398.626 90.0923L421.224 93.6594L420.442 98.5808L397.844 95.0137L398.626 90.0923ZM421.602 93.719L432.71 95.4725L431.928 100.394L420.82 98.6404L421.602 93.719ZM421.662 93.3415L422.444 88.4213L433.552 90.1748L432.77 95.0962L421.662 93.3415ZM433.932 90.2335L445.042 91.9871L444.26 96.9085L433.15 95.1549L433.932 90.2335ZM433.992 89.856L434.774 84.9357L445.884 86.6894L445.101 91.6108L433.992 89.856ZM434.834 84.5576L435.616 79.6374L446.726 81.3911L445.943 86.3125L434.834 84.5576ZM435.676 79.2593L436.458 74.3385L447.568 76.0922L446.786 81.0136L435.676 79.2593ZM436.518 73.961L437.3 69.0402L448.41 70.7938L447.628 75.7152L436.518 73.961ZM437.36 68.6626L438.142 63.7412L449.252 65.4949L448.47 70.4163L437.36 68.6626ZM438.202 63.3643L438.984 58.4429L450.094 60.1966L449.312 65.118L438.202 63.3643ZM439.044 58.066L439.826 53.1446L450.936 54.8983L450.154 59.8191L439.044 58.066ZM438.666 58.0063L427.556 56.2526L428.338 51.3312L439.447 53.0847L438.666 58.0063ZM427.178 56.193L404.58 52.6259L405.363 47.7045L427.96 51.2716L427.178 56.193ZM404.202 52.5662L393.095 50.8129L393.877 45.8915L404.984 47.6448L404.202 52.5662ZM392.714 50.7529L381.605 48.9992L382.387 44.0778L393.497 45.8315L392.714 50.7529ZM392.654 51.1304L391.872 56.0518L380.763 54.2981L381.545 49.3761L392.654 51.1304ZM380.385 54.2379L369.275 52.4842L370.057 47.5628L381.167 49.3165L380.385 54.2379ZM380.325 54.6154L379.543 59.5368L368.433 57.7831L369.215 52.8611L380.325 54.6154ZM379.483 59.9137L378.7 64.8351L367.591 63.0814L368.373 58.16L379.483 59.9137ZM378.641 65.212L377.858 70.1334L366.749 68.3798L367.531 63.4584L378.641 65.212ZM377.799 70.5104L377.016 75.4318L365.907 73.6781L366.689 68.7573L377.799 70.5104ZM376.957 75.8087L376.174 80.7301L365.065 78.9764L365.847 74.0556L376.957 75.8087ZM376.115 81.107L375.332 86.0296L364.222 84.2759L365.005 79.3545L376.115 81.107ZM375.273 86.4053L374.49 91.3267L363.381 89.5731L364.163 84.6529L375.273 86.4053ZM375.651 86.465L386.76 88.2187L385.978 93.1401L374.868 91.3864L375.651 86.465ZM385.919 93.5171L385.136 98.4409L374.026 96.6871L374.808 91.7645L385.919 93.5171ZM386.297 93.5768L397.406 95.3304L396.624 100.254L385.516 98.5008L386.297 93.5768ZM397.785 95.3902L420.383 98.9572L419.6 103.881L397.002 100.314L397.785 95.3902ZM420.761 99.0169L431.869 100.77L431.086 105.694L419.977 103.941L420.761 99.0169ZM432.248 100.83L443.358 102.584L442.576 107.508L431.465 105.754L432.248 100.83ZM432.308 100.453L433.09 95.5331L444.2 97.2868L443.418 102.208L432.308 100.453ZM444.578 97.3447L455.688 99.0983L454.906 104.02L443.796 102.266L444.578 97.3447ZM444.638 96.9671L445.42 92.0481L456.53 93.8018L455.748 98.7232L444.638 96.9671ZM445.48 91.6688L446.262 86.7492L457.372 88.5029L456.59 93.4243L445.48 91.6688ZM446.322 86.3705L447.104 81.4509L458.214 83.2045L457.432 88.1259L446.322 86.3705ZM447.164 81.0721L447.946 76.1519L459.056 77.9056L458.274 82.827L447.164 81.0721ZM448.006 75.7738L448.788 70.8536L459.898 72.6073L459.116 77.5287L448.006 75.7738ZM448.848 70.4755L449.63 65.5547L460.74 67.3084L459.958 72.2298L448.848 70.4755ZM449.69 65.1772L450.472 60.2564L461.582 62.01L460.8 66.9314L449.69 65.1772ZM450.532 59.8788L451.314 54.958L462.424 56.7117L461.642 61.6325L450.532 59.8788ZM451.374 54.5805L452.157 49.6597L463.266 51.4134L462.484 56.3348L451.374 54.5805ZM450.996 54.5208L439.886 52.7671L440.668 47.8463L451.778 49.6L450.996 54.5208ZM439.509 52.7075L428.398 50.9537L429.18 46.0329L440.289 47.7864L439.509 52.7075ZM428.021 50.8941L405.423 47.327L406.205 42.4062L428.802 45.9732L428.021 50.8941ZM405.045 47.2674L393.937 45.514L394.719 40.5932L405.826 42.3465L405.045 47.2674ZM393.557 45.4541L382.447 43.7003L383.229 38.7795L394.339 40.5332L393.557 45.4541ZM382.069 43.6407L370.959 41.8869L371.741 36.9661L382.851 38.7198L382.069 43.6407ZM382.009 44.0182L381.227 48.939L370.117 47.1853L370.899 42.2645L382.009 44.0182ZM369.739 47.1256L358.629 45.3719L359.411 40.4511L370.521 42.2048L369.739 47.1256ZM369.679 47.5031L368.897 52.4245L357.787 50.6708L358.569 45.7494L369.679 47.5031ZM368.837 52.8014L368.055 57.7228L356.945 55.9692L357.727 51.0478L368.837 52.8014ZM367.995 58.0998L367.213 63.0212L356.103 61.2675L356.885 56.3467L367.995 58.0998ZM367.153 63.3981L366.371 68.3195L355.261 66.5658L356.043 61.645L367.153 63.3981ZM366.311 68.6964L365.529 73.6184L354.419 71.8647L355.201 66.9439L366.311 68.6964ZM365.469 73.9947L364.687 78.9161L353.577 77.1625L354.359 72.2423L365.469 73.9947ZM364.627 79.2931L363.845 84.2145L352.735 82.4608L353.517 77.5412L364.627 79.2931ZM363.785 84.5914L363.003 89.5128L351.893 87.7591L352.675 82.8395L363.785 84.5914ZM362.943 89.8897L362.16 94.8141L351.05 93.0604L351.833 88.1378L362.943 89.8897ZM363.321 89.9494L374.431 91.7031L373.648 96.6274L362.538 94.8738L363.321 89.9494ZM373.589 97.002L372.806 101.923L361.697 100.169L362.478 95.2501L373.589 97.002ZM373.967 97.0617L385.076 98.8154L384.294 103.736L373.185 101.982L373.967 97.0617ZM385.454 98.875L396.564 100.629L395.782 105.55L384.675 103.796L385.454 98.875ZM396.942 100.688L419.54 104.255L418.758 109.176L396.16 105.609L396.942 100.688ZM419.918 104.315L431.027 106.069L430.245 110.989L419.136 109.236L419.918 104.315ZM431.406 106.128L442.516 107.882L441.734 112.803L430.624 111.049L431.406 106.128ZM442.894 107.942L454.003 109.695L453.221 114.616L442.112 112.863L442.894 107.942ZM442.954 107.564L443.735 102.645L454.845 104.398L454.063 109.321L442.954 107.564ZM455.224 104.456L466.333 106.21L465.551 111.134L454.441 109.381L455.224 104.456ZM455.284 104.079L456.065 99.1597L467.175 100.913L466.393 105.835L455.284 104.079ZM456.126 98.7804L456.907 93.8614L468.017 95.615L467.235 100.536L456.126 98.7804ZM456.968 93.4821L457.749 88.5624L468.859 90.3161L468.077 95.2375L456.968 93.4821ZM457.81 88.1837L458.591 83.2641L469.701 85.0178L468.919 89.9392L457.81 88.1837ZM458.652 82.8854L459.434 77.9652L470.543 79.7189L469.761 84.6403L458.652 82.8854ZM459.494 77.5871L460.276 72.6669L471.385 74.4205L470.603 79.3419L459.494 77.5871ZM460.336 72.2888L461.118 67.368L472.227 69.1216L471.445 74.043L460.336 72.2888ZM461.178 66.9904L461.96 62.0696L473.07 63.8233L472.287 68.7447L461.178 66.9904ZM462.02 61.6921L462.802 56.7713L473.912 58.525L473.13 63.4458L462.02 61.6921ZM371.363 36.9065L370.581 41.8279L359.471 40.0742L360.253 35.1528L371.363 36.9065ZM350.991 93.4367L362.1 95.1904L361.318 100.111L350.209 98.3576L350.991 93.4367ZM453.599 114.678L454.381 109.757L465.491 111.511L464.709 116.431L453.599 114.678Z" fill="#B2B9BD"/>
<path d="M82.9314 96.9401C75.7248 89.3044 65.804 84.795 55.3014 84.3811V124.515L82.9314 96.9401Z" fill="#404040"/>
<path d="M82.9314 101.938L55.3014 129.511H93.915C93.9287 119.255 89.9971 109.385 82.9314 101.938Z" fill="#B2B9BD"/>
<path d="M93.957 132.395C93.9587 134.897 93.7269 137.393 93.2645 139.852C93.2285 140.046 93.1907 140.239 93.1511 140.432C92.2792 144.72 90.7054 148.836 88.4928 152.614C88.3728 152.817 88.2528 153.02 88.1327 153.219C85.9521 156.799 83.2253 160.018 80.0505 162.76C79.8933 162.897 79.736 163.032 79.5764 163.165C72.7539 168.895 64.2113 172.191 55.3008 172.53V132.395H93.957Z" fill="#E9EBEC"/>
<path d="M51.3956 172.564C51.9302 172.564 52.4613 172.55 52.9912 172.53V132.395L23.7446 161.582C31.2096 168.646 41.1083 172.577 51.3956 172.564Z" fill="#7B878E"/>
<path d="M51.4496 89.3426C46.1637 89.3426 40.9297 90.3816 36.0462 92.4003C31.1627 94.419 26.7255 97.3779 22.9879 101.108C19.2503 104.838 16.2854 109.266 14.2627 114.14C12.24 119.013 11.1989 124.237 11.199 129.512H53.0871V89.3785C52.5435 89.3587 51.9986 89.3426 51.4496 89.3426Z" fill="#3AC864"/>
<path d="M41.8473 132.395L33.3864 140.839L33.1098 141.115L33.1038 141.121L25.723 148.484L25.4422 148.764L17.4691 156.721L17.1883 157.001L12.5995 161.578C8.61483 157.829 5.44122 153.305 3.27407 148.286C1.10692 143.266 -0.00791014 137.857 -0.00180612 132.392L41.8473 132.395Z" fill="#3AC864"/>
<path d="M17.1882 157.004C10.5838 150.476 6.72467 141.68 6.3985 132.409L7.19418 132.381C7.51341 141.45 11.2886 150.055 17.7493 156.44L17.1882 157.004Z" fill="#404040"/>
<path d="M25.7302 148.494L25.1529 149.038C20.7532 144.402 17.6479 138.695 16.1465 132.488L16.533 132.395H16.9428C18.4194 138.428 21.445 143.974 25.7218 148.485L25.7302 148.494Z" fill="#404040"/>
<path d="M33.4068 140.869L33.1068 141.117L33.1008 141.123L32.7941 141.377C30.5608 138.711 28.7205 135.74 27.3287 132.554L27.693 132.395H28.1292C29.4776 135.441 31.2466 138.283 33.3846 140.839C33.3914 140.849 33.3988 140.858 33.4068 140.867V140.869Z" fill="#404040"/>
<path d="M204.227 73.8629L153.879 91.1507C153.245 91.3676 152.55 91.3244 151.947 91.0306C151.344 90.7369 150.883 90.2165 150.663 89.5836L127.091 21.3174C126.874 20.684 126.916 19.9905 127.21 19.3889C127.503 18.7873 128.024 18.3269 128.658 18.1085L179.006 0.820659C179.64 0.603764 180.335 0.646938 180.938 0.940708C181.54 1.23448 182.002 1.75486 182.221 2.3877L205.793 70.654C206.011 71.2873 205.969 71.9809 205.675 72.5824C205.381 73.184 204.861 73.6445 204.227 73.8629Z" fill="#E9EBEC"/>
<path d="M204.227 73.8629L153.879 91.1507C153.245 91.3676 152.55 91.3244 151.947 91.0306C151.344 90.7369 150.883 90.2165 150.663 89.5836L127.091 21.3174C126.874 20.684 126.916 19.9905 127.21 19.3889C127.503 18.7873 128.024 18.3269 128.658 18.1085L179.006 0.820659C179.64 0.603764 180.335 0.646938 180.938 0.940708C181.54 1.23448 182.002 1.75486 182.221 2.3877L205.793 70.654C206.011 71.2873 205.969 71.9809 205.675 72.5824C205.381 73.184 204.861 73.6445 204.227 73.8629ZM128.756 18.3917C128.197 18.5846 127.739 18.9906 127.48 19.5207C127.221 20.0507 127.184 20.6617 127.375 21.22L150.947 89.4863C151.14 90.0447 151.548 90.5039 152.08 90.7631C152.612 91.0224 153.225 91.0604 153.784 90.869L204.13 73.5819C204.689 73.3893 205.149 72.983 205.408 72.4522C205.667 71.9214 205.704 71.3094 205.512 70.7506L181.94 2.48428C181.746 1.92645 181.339 1.46792 180.807 1.20917C180.275 0.950417 179.663 0.91255 179.104 1.10386L128.756 18.3917Z" fill="#B2B9BD"/>
<path d="M175.395 21.9L161.142 26.7959C160.843 26.8986 160.515 26.8784 160.231 26.7397C159.946 26.6011 159.729 26.3553 159.625 26.0565C159.522 25.7577 159.542 25.4303 159.681 25.1464C159.819 24.8625 160.065 24.6453 160.364 24.5426L174.617 19.6467C174.916 19.5439 175.244 19.5641 175.528 19.7028C175.813 19.8414 176.03 20.0872 176.134 20.386C176.237 20.6848 176.217 21.0122 176.078 21.2961C175.94 21.58 175.694 21.7973 175.395 21.9Z" fill="#3AC864"/>
<path d="M181.357 24.0995L162.452 30.5935C162.153 30.6962 161.825 30.676 161.541 30.5374C161.257 30.3987 161.039 30.1529 160.936 29.8541C160.833 29.5553 160.852 29.2279 160.991 28.9439C161.13 28.66 161.375 28.4427 161.674 28.34L180.578 21.8462C180.877 21.7435 181.205 21.7637 181.489 21.9023C181.774 22.041 181.992 22.2868 182.095 22.5856C182.198 22.8844 182.178 23.2118 182.039 23.4958C181.901 23.7797 181.656 23.9968 181.357 24.0995Z" fill="#3AC864"/>
<path d="M181.71 40.2726L146.211 52.4687C145.912 52.5714 145.584 52.5512 145.3 52.4125C145.015 52.2739 144.798 52.028 144.694 51.7292C144.591 51.4303 144.611 51.1028 144.75 50.8189C144.888 50.5349 145.134 50.3176 145.433 50.2149L180.932 38.0188C181.232 37.916 181.559 37.9362 181.844 38.0749C182.128 38.2136 182.346 38.4594 182.449 38.7583C182.552 39.0571 182.532 39.3846 182.394 39.6686C182.255 39.9526 182.009 40.1698 181.71 40.2726Z" fill="#B2B9BD"/>
<path d="M187.672 42.4725L147.521 56.2669C147.222 56.3696 146.895 56.3494 146.61 56.2107C146.326 56.072 146.108 55.8262 146.005 55.5273C145.902 55.2285 145.922 54.901 146.06 54.617C146.199 54.333 146.445 54.1158 146.744 54.013L186.894 40.2187C187.193 40.1159 187.521 40.1361 187.806 40.2748C188.09 40.4135 188.308 40.6593 188.411 40.9582C188.514 41.257 188.494 41.5845 188.356 41.8685C188.217 42.1525 187.971 42.3698 187.672 42.4725Z" fill="#B2B9BD"/>
<path d="M186.032 52.7996L150.533 64.9957C150.234 65.0985 149.906 65.0783 149.622 64.9396C149.337 64.8009 149.12 64.5551 149.017 64.2562C148.913 63.9574 148.933 63.6299 149.072 63.3459C149.21 63.0619 149.456 62.8447 149.755 62.7419L185.255 50.5458C185.554 50.4431 185.882 50.4633 186.166 50.602C186.45 50.7406 186.668 50.9865 186.771 51.2853C186.874 51.5842 186.854 51.9117 186.716 52.1956C186.577 52.4796 186.332 52.6969 186.032 52.7996Z" fill="#B2B9BD"/>
<path d="M191.994 54.9996L151.844 68.7939C151.545 68.8967 151.217 68.8765 150.932 68.7378C150.648 68.5991 150.43 68.3533 150.327 68.0544C150.224 67.7555 150.244 67.4281 150.382 67.1441C150.521 66.8601 150.767 66.6428 151.066 66.5401L191.216 52.7457C191.516 52.643 191.843 52.6632 192.128 52.8019C192.412 52.9405 192.63 53.1864 192.733 53.4852C192.836 53.7841 192.816 54.1116 192.678 54.3956C192.539 54.6796 192.293 54.8968 191.994 54.9996Z" fill="#B2B9BD"/>
<path d="M190.355 65.3273L154.855 77.5234C154.556 77.6261 154.229 77.6059 153.944 77.4673C153.66 77.3286 153.442 77.0828 153.339 76.7839C153.236 76.485 153.256 76.1576 153.394 75.8736C153.533 75.5896 153.779 75.3723 154.078 75.2696L189.577 63.0735C189.876 62.9707 190.204 62.9909 190.488 63.1296C190.773 63.2683 190.99 63.5141 191.094 63.813C191.197 64.1119 191.177 64.4393 191.038 64.7233C190.9 65.0073 190.654 65.2245 190.355 65.3273Z" fill="#B2B9BD"/>
<path d="M196.317 67.5272L156.166 81.3215C155.867 81.4243 155.539 81.4041 155.255 81.2654C154.97 81.1267 154.753 80.8809 154.649 80.582C154.546 80.2832 154.566 79.9557 154.705 79.6717C154.843 79.3877 155.089 79.1704 155.388 79.0677L195.539 65.2733C195.838 65.1706 196.166 65.1908 196.45 65.3295C196.735 65.4682 196.952 65.714 197.055 66.0129C197.159 66.3117 197.139 66.6392 197 66.9232C196.862 67.2072 196.616 67.4244 196.317 67.5272Z" fill="#B2B9BD"/>
<path d="M137.912 27.5522L153.903 22.0615C154.297 21.9261 154.729 21.9527 155.105 22.1355C155.48 22.3183 155.767 22.6424 155.903 23.0363L159.365 33.0638C159.433 33.2589 159.461 33.4652 159.448 33.6711C159.436 33.877 159.383 34.0784 159.292 34.2637C159.202 34.4491 159.076 34.6148 158.921 34.7514C158.766 34.888 158.586 34.9928 158.391 35.0599L142.4 40.5505C142.006 40.6858 141.574 40.6593 141.199 40.4768C140.824 40.2942 140.537 39.9705 140.401 39.5768L136.938 29.5482C136.802 29.1543 136.828 28.7226 137.011 28.3483C137.194 27.974 137.518 27.6876 137.912 27.5522Z" fill="#3AC864"/>
</g>
<defs>
<clipPath id="clip0_1_25">
<rect width="480" height="372" fill="white"/>
</clipPath>
</defs>
</svg>
